<?xml version="1.0" standalone="no"?>
<!DOCTYPE svg PUBLIC "-//W3C//DTD SVG 20010904//EN"
 "http://www.w3.org/TR/2001/REC-SVG-20010904/DTD/svg10.dtd">
<svg version="1.0" xmlns="http://www.w3.org/2000/svg"
 width="1280.000000pt" height="720.000000pt" viewBox="0 0 1280.000000 720.000000"
 preserveAspectRatio="xMidYMid meet">

<g transform="translate(0.000000,720.000000) scale(0.100000,-0.100000)"
fill="#000000" stroke="none">
<path d="M3709 5059 c-5 -3 -8 -375 -7 -935 l3 -929 265 1 c292 1 342 8 395
62 60 59 60 62 60 472 0 330 -2 379 -17 410 -43 92 -109 120 -296 125 l-127 3
-3 276 -2 276 200 0 201 0 -3 122 -3 123 -328 0 c-181 0 -333 -2 -338 -6z
m435 -1055 c3 -9 6 -132 6 -274 0 -142 -3 -265 -6 -274 -5 -13 -22 -16 -85
-16 l-79 0 0 290 0 290 79 0 c63 0 80 -3 85 -16z"/>
<path d="M4509 5060 c-6 -4 -8 -186 -7 -470 l3 -463 195 -52 c107 -29 214 -58
238 -64 l42 -12 0 -268 c0 -218 -3 -271 -14 -280 -9 -8 -47 -11 -107 -9 l-94
3 -5 230 -5 230 -125 0 -125 0 0 -285 0 -285 25 -45 c18 -33 38 -51 74 -69 47
-23 59 -25 245 -26 286 -2 338 13 383 103 l23 47 0 860 0 860 -137 0 -138 0 0
-407 c0 -382 -1 -408 -17 -407 -10 0 -54 11 -98 23 l-80 22 -5 385 -5 384
-128 0 c-71 0 -133 -2 -138 -5z"/>
<path d="M5562 5058 c-97 -8 -159 -40 -190 -96 -33 -59 -40 -146 -37 -487 2
-337 8 -370 77 -429 l40 -35 -61 -107 -61 -106 2 -302 3 -301 125 -1 c69 0
131 2 138 4 9 3 12 70 12 287 l0 282 63 111 62 111 42 1 43 0 2 -397 3 -398
138 0 137 0 0 935 0 935 -232 0 c-128 0 -266 -3 -306 -7z m256 -529 l-3 -292
-90 2 c-49 1 -94 6 -99 12 -11 10 -13 525 -3 552 5 14 21 17 102 17 l95 0 -2
-291z"/>
<path d="M6209 5060 c-5 -4 -8 -362 -7 -936 l3 -929 138 0 137 0 0 418 0 419
28 -6 c134 -33 182 -49 183 -65 0 -9 2 -185 2 -391 l2 -375 138 0 c114 0 138
2 141 15 2 8 3 429 3 935 l-2 920 -140 0 -140 0 -1 -420 c-1 -231 -2 -421 -3
-422 -1 -2 -55 13 -143 38 l-68 20 -2 392 -3 392 -128 0 c-71 0 -133 -2 -138
-5z"/>
<path d="M7260 5059 c-81 -9 -126 -34 -158 -88 l-27 -46 0 -795 0 -795 25 -45
c19 -33 38 -51 75 -70 49 -24 54 -25 295 -24 268 1 290 5 341 61 15 15 31 43
38 62 8 24 11 258 11 815 0 736 -1 783 -19 821 -43 93 -84 107 -331 109 -107
1 -220 -1 -250 -5z m315 -929 l0 -685 -104 -3 c-77 -2 -107 1 -113 10 -4 7 -8
312 -8 679 0 514 3 668 12 677 9 9 43 12 113 10 l100 -3 0 -685z"/>
<path d="M7971 5062 c-17 -6 -16 -1858 2 -1864 22 -8 561 -2 597 6 57 13 97
44 122 94 22 46 23 56 26 359 4 396 -4 440 -88 471 l-25 9 33 17 c64 33 67 46
70 401 2 176 0 339 -3 363 -8 57 -63 115 -125 132 -42 12 -578 22 -609 12z
m447 -254 c14 -14 17 -514 4 -535 -6 -9 -104 -18 -169 -14 -10 1 -13 64 -13
281 l0 280 83 0 c51 0 88 -5 95 -12z m16 -814 c3 -9 6 -131 6 -273 0 -187 -3
-260 -12 -269 -8 -8 -45 -12 -100 -12 l-88 0 0 285 0 285 94 0 c76 0 95 -3
100 -16z"/>
<path d="M8831 5062 c-8 -3 -11 -175 -11 -553 l0 -549 140 0 140 0 -2 552 -3
553 -127 0 c-70 0 -132 -1 -137 -3z"/>
<path d="M8895 3476 c-42 -18 -83 -69 -91 -112 -23 -126 116 -223 228 -157 88
52 90 200 3 257 -35 23 -104 29 -140 12z"/>
</g>
</svg>
